<?xml version="1.0" encoding="UTF-8" standalone="no"?>
<!-- Created with Inkscape (http://www.inkscape.org/) -->

<svg
   width="2857.5mm"
   height="79.375mm"
   viewBox="0 0 2857.5 79.375"
   version="1.1"
   id="svg1"
   inkscape:version="1.3 (0e150ed6c4, 2023-07-21)"
   sodipodi:docname="arc-banner-scaled.svg"
   inkscape:export-filename="arc-banner.png"
   inkscape:export-xdpi="9.6000004"
   inkscape:export-ydpi="9.6000004"
   xmlns:inkscape="http://www.inkscape.org/namespaces/inkscape"
   xmlns:sodipodi="http://sodipodi.sourceforge.net/DTD/sodipodi-0.dtd"
   xmlns="http://www.w3.org/2000/svg"
   xmlns:svg="http://www.w3.org/2000/svg">
  <sodipodi:namedview
     id="namedview1"
     pagecolor="#ffffff"
     bordercolor="#666666"
     borderopacity="1.0"
     inkscape:showpageshadow="2"
     inkscape:pageopacity="0.0"
     inkscape:pagecheckerboard="0"
     inkscape:deskcolor="#d1d1d1"
     inkscape:document-units="mm"
     inkscape:zoom="0.69219276"
     inkscape:cx="4982.7161"
     inkscape:cy="9.3904478"
     inkscape:window-width="1920"
     inkscape:window-height="991"
     inkscape:window-x="1341"
     inkscape:window-y="1344"
     inkscape:window-maximized="1"
     inkscape:current-layer="layer1" />
  <defs
     id="defs1" />
  <g
     inkscape:label="Layer 1"
     inkscape:groupmode="layer"
     id="layer1"
     transform="translate(1294.0768,-84.137502)">
    <path
       id="rect15-1"
       style="fill:#231f20;fill-opacity:1;stroke:none;stroke-width:1"
       d="M -1294.0768,84.137502 V 163.5125 h 2589.0403 96.8722 c -0.7581,-0.53876 -1.4626,-1.1063 -2.0914,-1.70791 -5.6088,-5.42652 -5.6872,-11.72401 -5.8466,-17.63096 V 110.6749 h 17.9451 v 35.17873 c 0,2.389 0.081,4.86281 2.0815,6.77633 1.443,1.51704 3.6086,2.07533 5.6922,2.07533 2.8005,0 4.6454,-1.04033 5.687,-1.99471 2.0823,-1.99403 2.1616,-4.46795 2.1616,-6.85695 V 110.6749 h 18.0258 v 29.99042 c 0,6.45818 2e-4,14.83864 -6.6487,21.13927 -0.635,0.5958 -1.3378,1.16269 -2.0929,1.70791 h 26.8748 c -7.9104,-5.67771 -11.6282,-15.16452 -11.6282,-24.36492 0,-15.15513 10.1775,-30.55111 29.3253,-30.55111 8.5705,0 16.7449,3.03417 22.6726,9.09867 2.4034,2.4723 3.5251,4.38341 4.7253,6.61872 l -14.98,7.4197 c -1.4452,-3.35372 -4.1669,-9.33328 -11.6985,-9.33328 -3.9246,0 -6.4102,1.83704 -7.612,3.02927 -4.2463,4.06984 -4.2462,10.44781 -4.2462,12.68657 0,8.37235 3.1252,16.27084 11.9388,16.27084 8.3331,0 10.8178,-7.33734 11.4577,-9.25215 l 15.2223,7.33754 c -1.4432,2.71014 -2.804,5.26207 -5.5283,7.97522 -1.1675,1.14402 -2.4311,2.16241 -3.7703,3.06493 h 16.4584 v -52.91822 h 17.8635 v 41.59126 h 23.1851 v 11.32696 h 16.4135 V 84.137502 h -268.4596 z m 70.1109,17.323488 c 7.5784,0 13.946,4.43894 14.8616,12.40131 h -7.3339 c -0.481,-3.42631 -3.7638,-6.03374 -7.5277,-6.03374 -6.802,0 -9.3591,5.79326 -9.3591,11.82305 0,5.74287 2.5571,11.53263 9.3591,11.53263 4.6331,0 7.2364,-3.18595 7.8187,-7.72201 h 7.3339 c -0.7722,8.59109 -6.7092,14.08906 -15.1526,14.08906 -10.6629,0 -16.9333,-7.95832 -16.9333,-17.89968 0,-10.22829 6.2704,-18.19062 16.9333,-18.19062 z m 724.03541,0 c 7.57839,0 13.94598,4.43893 14.86162,12.40131 h -7.3334 c -0.48104,-3.42631 -3.76434,-6.03374 -7.52822,-6.03374 -6.80199,0 -9.35912,5.79325 -9.35912,11.82305 0,5.74287 2.55713,11.53263 9.35912,11.53263 4.63311,0 7.23685,-3.18595 7.81916,-7.72201 h 7.3334 c -0.77219,8.5911 -6.70915,14.08906 -15.15256,14.08906 -10.66292,0 -16.93282,-7.95831 -16.93282,-17.89968 0,-10.2283 6.2699,-18.19062 16.93282,-18.19062 z m -561.43391,0.81856 c 1.2068,0 2.46,0.14788 3.6204,0.1943 v 5.1139 c -0.8228,-0.097 -1.6417,-0.14314 -2.5109,-0.14314 -1.8314,0 -2.6035,0.77184 -2.6035,2.84788 v 1.49397 h 4.7263 v 4.58267 h -4.7263 v 20.36361 h -6.8523 v -20.36361 h -4.1015 v -4.58267 h 4.1015 v -1.92857 c 0,-4.39259 2.7511,-7.57834 8.3463,-7.57834 z m 78.02156,0 h 7.768 l 12.88241,34.45319 h -7.86514 l -2.60347,-7.67137 h -12.88653 l -2.70063,7.67137 h -7.67136 z m 40.38462,0 h 6.85281 v 34.45319 h -6.51536 v -3.18585 h -0.0972 c -1.59078,2.70476 -4.3879,3.86126 -7.57369,3.86126 -7.52777,0 -11.19468,-6.46449 -11.19468,-13.36352 0,-6.70916 3.71313,-12.93306 11.05101,-12.93306 2.94105,0 5.83554,1.25284 7.43056,3.71708 h 0.0465 z m 166.2684,0 h 6.85228 v 34.45319 h -6.51483 v -3.18585 h -0.0972 c -1.59075,2.70476 -4.38843,3.86126 -7.57422,3.86126 -7.52774,0 -11.19466,-6.46449 -11.19466,-13.36352 0,-6.70916 3.71367,-12.93306 11.05152,-12.93306 2.94108,0 5.83554,1.25284 7.43055,3.71708 h 0.0465 z m 28.99719,0 h 18.57457 c 6.17749,0 10.08468,4.29571 10.08468,9.50691 0,4.05503 -1.63685,7.09334 -5.45137,8.63771 v 0.0966 c 3.71747,0.96629 4.77623,4.58259 5.01676,8.05532 0.14769,2.1731 0.0971,6.22825 1.45159,8.15661 h -7.57836 c -0.91564,-2.1731 -0.81844,-5.50215 -1.20663,-8.24911 -0.52745,-3.62041 -1.92839,-5.21157 -5.73868,-5.21157 h -7.57836 v 13.46068 h -7.5742 z m 189.57086,0 h 6.85281 v 12.97957 h 0.14728 c 1.73425,-2.7976 4.7262,-4.14755 7.28327,-4.14755 7.28725,0 9.11831,4.10147 9.11831,10.27895 v 15.34222 h -6.84816 v -14.08906 c 0,-4.10145 -1.2067,-6.12728 -4.3925,-6.12728 -3.71324,0 -5.3082,2.07188 -5.3082,7.13962 v 13.07672 h -6.85281 z m 226.24458,0 h 6.85281 v 5.64616 h -6.85281 z m -814.35851,2.02985 h 6.8528 v 7.47706 h 5.0172 v 4.58267 h -5.0172 v 12.3548 c 0,2.31655 0.5783,2.89491 2.8949,2.89491 0.7215,0 1.4008,-0.0508 2.1223,-0.1943 v 5.35471 c -1.1561,0.1941 -2.6541,0.24443 -4.0044,0.24443 -4.1985,0 -7.8656,-0.96591 -7.8656,-5.93659 v -14.71796 h -4.1476 v -4.58267 h 4.1476 z m 799.0163,0 h 6.85229 v 7.47706 h 5.01727 v 4.58267 h -5.01727 v 12.3548 c 0,2.31655 0.57835,2.89491 2.89492,2.89491 0.72155,0 1.4008,-0.0508 2.12235,-0.1943 v 5.35471 c -1.1562,0.1941 -2.65414,0.24443 -4.00441,0.24443 -4.19852,0 -7.86515,-0.9659 -7.86515,-5.93659 v -14.71796 h -4.14807 v -4.58267 h 4.14807 z m -392.89903,3.85661 v 9.7007 h 8.29977 c 3.37989,0 5.21105,-1.44687 5.21105,-4.9196 0,-3.32926 -1.83116,-4.7811 -5.21105,-4.7811 z m 2105.55213,2.33009 v 0 c 0,0 0.094,0.12296 0.094,0.15503 v 0.0677 c 0,0.0235 -0.01,0.0264 -0.022,0.0264 -0.025,0 -0.031,0.0512 0.016,0.0512 0.049,0 0.07,0.0419 0.07,0.0641 0,0.017 0,0.0208 0,0.0367 0,0.0312 0.1791,0.23375 0.3571,0.37259 0.022,0.0185 0.039,0.0299 0.064,0.0336 h 0.052 c 0.016,0 0.027,0.01 0.027,0.0253 v 0.10231 c 0,0.0114 -0.012,0.0207 -0.027,0.0207 h -0.04 c -0.02,0.006 -0.034,0.0281 -0.034,0.0765 0,0.0469 0.012,0.0679 0.028,0.0744 h 0.045 c 0.016,0 0.027,0.0129 0.027,0.0284 v 0.0982 c 0,0.0127 -0.012,0.0248 -0.027,0.0248 v 0 c 0,0.003 -0.013,0.004 -0.013,0.004 -0.024,0 -0.05,-0.007 -0.05,0.0305 v 1.04128 c 0.03,0.0155 0.069,0.043 0.069,0.0935 v 0.0853 c 0,0.0222 0.019,0.0563 0.055,0.0563 h 0.1608 c 0.036,0 0.057,0.0272 0.057,0.0522 v 0.17157 c 0,0.0129 -0.018,0.0376 -0.042,0.0346 -0.081,-0.003 -0.1349,0.0223 -0.1349,0.0806 0,0.003 0,0.0651 0,0.0651 0,0.0553 0.054,0.08 0.1152,0.10128 0.1154,0.0398 0.3873,0.11091 0.3938,0.29818 0.4434,0.20642 1.2441,0.64836 1.8257,1.52032 0.7426,1.01164 0.672,2.41073 0.677,2.61069 0,0.0413 0.032,0.0651 0.063,0.0651 h 0.086 c 0.038,0 0.037,0.0346 0.037,0.0346 v 0.14469 c 0,0 0,0.0336 0.038,0.0336 h 0.1432 c 0,0 0.039,-1.6e-4 0.039,0.0403 v 0.15709 c 0,0 -2e-4,0.0341 0.038,0.0341 h 0.1467 c 0,0 0.042,10e-6 0.042,0.0413 v 0.16743 c 0,0.0192 -0.012,0.0224 -0.026,0.0258 -0.043,0.006 -0.1317,0.0454 -0.1317,0.14159 0,0.16359 -0.1008,0.17829 -0.1421,0.17829 v 0.61081 c 0,0.1425 0.1103,0.20073 0.1736,0.21343 0.013,0.003 0.029,0.0183 0.029,0.0326 v 0.62942 l -4.2793,-0.94619 v 0 l -4.2814,0.94619 v -0.62942 c 0,-0.0142 0.019,-0.0297 0.032,-0.0326 0.063,-0.0127 0.1732,-0.0709 0.1732,-0.21343 v -0.61081 c -0.041,0 -0.1416,-0.0147 -0.1416,-0.17829 0,-0.0962 -0.088,-0.13578 -0.1323,-0.14159 -0.015,-0.003 -0.025,-0.007 -0.025,-0.0258 v -0.16743 c 0,-0.0413 0.04,-0.0413 0.04,-0.0413 h 0.1468 c 0.04,0 0.038,-0.0341 0.038,-0.0341 v -0.15709 c 0,-0.0405 0.037,-0.0403 0.037,-0.0403 h 0.1452 c 0.04,0 0.038,-0.0336 0.038,-0.0336 v -0.1447 c 0,0 10e-5,-0.0346 0.038,-0.0346 h 0.085 c 0.032,0 0.062,-0.0238 0.064,-0.0651 0.01,-0.19996 -0.065,-1.59905 0.6774,-2.61069 0.5795,-0.87196 1.3807,-1.31391 1.8263,-1.52032 0.01,-0.18727 0.2756,-0.25836 0.3922,-0.29818 0.061,-0.0213 0.1153,-0.0461 0.1153,-0.10438 0,0 0,-0.059 0,-0.062 0,-0.0583 -0.054,-0.0841 -0.1349,-0.0806 -0.022,0.003 -0.043,-0.0217 -0.043,-0.0346 v -0.17157 c 0,-0.025 0.024,-0.0522 0.058,-0.0522 h 0.1602 c 0.037,0 0.056,-0.0342 0.056,-0.0563 v -0.0853 c 0,-0.0506 0.039,-0.078 0.069,-0.0935 v -1.04128 c 0,-0.037 -0.027,-0.0305 -0.05,-0.0305 0,0 -0.01,-1.7e-4 -0.013,-0.004 v 0 c -0.013,0 -0.024,-0.0121 -0.024,-0.0248 v -0.0982 c 0,-0.0155 0.012,-0.0284 0.024,-0.0284 h 0.047 c 0.015,-0.006 0.028,-0.0275 0.028,-0.0744 0,-0.0484 -0.014,-0.07 -0.034,-0.0765 h -0.041 c -0.013,0 -0.024,-0.009 -0.024,-0.0207 v -0.10232 c 0,-0.0157 0.012,-0.0253 0.024,-0.0253 h 0.054 c 0.024,-0.004 0.042,-0.0151 0.063,-0.0336 0.1801,-0.13883 0.3581,-0.34137 0.3581,-0.37258 0,-0.0159 0,-0.0197 0,-0.0367 0,-0.0222 0.023,-0.0641 0.07,-0.0641 0.046,0 0.04,-0.0512 0.016,-0.0512 -0.018,0 -0.022,-0.003 -0.022,-0.0264 v -0.0677 c 0,-0.0321 0.092,-0.15503 0.092,-0.15503 z m -2345.01295,0.2775 -4.48964,12.64212 h 8.92866 l -4.34187,-12.64212 z m -213.26705,0.33797 c 8.494,0 12.5955,7.13916 12.1145,14.81459 h -18.001 c 0.1941,4.34196 2.3169,6.32107 6.1314,6.32107 2.747,0 4.9661,-1.69213 5.4007,-3.2365 h 6.0343 c -1.9326,5.88633 -6.0341,8.39742 -11.6799,8.39742 -7.8611,0 -12.7347,-5.40559 -12.7347,-13.12323 0,-7.48134 5.1605,-13.17335 12.7347,-13.17335 z m 30.4467,0 c 7.2872,0 9.1183,4.10147 9.1183,10.27895 v 15.34222 h -6.8482 v -14.08906 c 0,-4.10145 -1.2072,-6.12728 -4.393,-6.12728 -3.7132,0 -5.3082,2.07189 -5.3082,7.13962 v 13.07672 h -6.8523 v -24.94628 h 6.5149 v 3.47266 h 0.1478 c 1.7342,-2.79759 4.726,-4.14755 7.6207,-4.14755 z m 45.8871,0 c 0.481,0 1.0588,0.0968 1.4935,0.24029 v 6.3717 c -0.6245,-0.14768 -1.637,-0.24494 -2.4598,-0.24494 -5.0171,0 -6.7557,3.62035 -6.7557,8.01295 v 11.24117 h -6.8528 v -24.94628 h 6.5154 v 4.63331 h 0.097 c 1.2532,-3.13516 4.633,-5.3082 7.9623,-5.3082 z m 15.7272,0 c 8.494,0 12.5956,7.13916 12.1145,14.81459 h -18.0004 c 0.1941,4.34196 2.3164,6.32107 6.1309,6.32107 2.7469,0 4.9666,-1.69213 5.4012,-3.2365 h 6.0337 c -1.9325,5.88633 -6.0341,8.39742 -11.6799,8.39742 -7.8611,0 -12.7346,-5.40559 -12.7346,-13.12323 0,-7.48134 5.1604,-13.17335 12.7346,-13.17335 z m 57.7583,0 c 7.8653,0 12.9289,5.21098 12.9289,13.17335 0,7.91174 -5.0636,13.12323 -12.9289,13.12323 -7.819,0 -12.8825,-5.21149 -12.8825,-13.12323 0,-7.96237 5.0635,-13.17335 12.8825,-13.17335 z m 31.9401,0 c 0.481,0 1.0594,0.0968 1.494,0.24029 v 6.3717 c -0.6245,-0.14768 -1.6375,-0.24494 -2.4603,-0.24494 -5.0171,0 -6.7557,3.62035 -6.7557,8.01295 v 11.24117 h -6.8523 v -24.94628 h 6.5149 v 4.63331 h 0.097 c 1.2532,-3.13516 4.6331,-5.3082 7.9623,-5.3082 z m 116.66887,0 c 4.96642,0 10.9497,1.10972 10.9497,7.0931 v 12.97957 c 0,2.26592 0.24522,4.5358 0.86972,5.5485 h -6.94582 c -0.24474,-0.77219 -0.4346,-1.59099 -0.48524,-2.41381 -2.16887,2.27014 -5.35459,3.08922 -8.3969,3.08922 -4.72596,0 -8.48992,-2.36343 -8.48992,-7.47758 0,-5.64581 4.245,-6.99604 8.48992,-7.57835 4.19849,-0.6245 8.11009,-0.48076 8.11009,-3.27835 0,-2.94528 -2.02962,-3.38016 -4.439,-3.38016 -2.6077,0 -4.29564,1.06358 -4.53617,3.76412 h -6.85282 c 0.38399,-6.418 6.12704,-8.34626 11.72644,-8.34626 z m 30.53922,0 c 7.28726,0 9.11881,4.10147 9.11881,10.27895 v 15.34222 h -6.84866 v -14.08906 c 0,-4.10145 -1.20669,-6.12728 -4.39251,-6.12728 -3.71324,0 -5.3082,2.07189 -5.3082,7.13962 v 13.07672 h -6.85282 v -24.94628 h 6.51537 v 3.47266 h 0.14779 c 1.73427,-2.79759 4.72554,-4.14755 7.62022,-4.14755 z m 26.29556,0 c 5.88629,0 11.29181,3.08838 11.72641,9.45575 h -6.70502 c -0.4346,-2.79759 -2.21919,-4.29121 -5.0674,-4.29121 -4.39259,0 -5.83994,4.43914 -5.83994,8.10596 0,3.56978 1.40076,7.86516 5.69629,7.86516 3.18157,0 5.01722,-2.02929 5.45185,-5.0674 h 6.60786 c -0.865,6.60789 -5.45174,10.22832 -12.01322,10.22832 -7.52774,0 -12.59147,-5.30866 -12.59147,-12.78578 0,-7.76827 4.62878,-13.5108 12.73464,-13.5108 z m 27.26086,0 c 8.494,0 12.59552,7.13916 12.11451,14.81459 h -18.00098 c 0.19412,4.34196 2.3169,6.32107 6.1314,6.32107 2.74696,0 4.9666,-1.69213 5.40123,-3.2365 h 6.03374 c -1.93259,5.88633 -6.03411,8.39742 -11.6799,8.39742 -7.86114,0 -12.73463,-5.40559 -12.73463,-13.12323 0,-7.48134 5.16043,-13.17335 12.73463,-13.17335 z m 108.27195,0 c 8.49402,0 12.59554,7.13915 12.1145,14.81459 h -18.00098 c 0.1941,4.34197 2.31691,6.32107 6.1314,6.32107 2.74699,0 4.9661,-1.69212 5.4007,-3.2365 h 6.03428 c -1.93257,5.88634 -6.03409,8.39742 -11.6799,8.39742 -7.86112,0 -12.73464,-5.40558 -12.73464,-13.12323 0,-7.48134 5.16046,-13.17335 12.73464,-13.17335 z m 26.39578,0 c 5.45172,0 10.46869,1.83544 11.00037,7.9623 h -6.51483 c -0.19413,-2.65413 -2.2198,-3.38016 -4.67982,-3.38016 -1.54437,0 -3.81011,0.29125 -3.81011,2.31666 0,2.46003 3.85694,2.79773 7.76852,3.7176 4.00438,0.91565 7.91165,2.36284 7.91165,6.99596 0,6.56147 -5.69251,8.68422 -11.38897,8.68422 -5.78929,0 -11.43484,-2.16927 -11.72175,-8.78138 h 6.5107 c 0.0507,2.9917 2.55694,4.19871 5.26169,4.19871 1.97901,0 4.48551,-0.77224 4.48551,-3.18585 0,-2.07604 -2.84424,-2.7974 -7.76851,-3.86074 -3.95375,-0.86924 -7.91165,-2.26591 -7.91165,-6.65851 0,-6.36737 5.49833,-8.00881 10.8572,-8.00881 z m 27.21023,0 c 8.49405,0 12.59554,7.13915 12.1145,14.81459 h -18.00095 c 0.1941,4.34197 2.31637,6.32107 6.1309,6.32107 2.74696,0 4.9666,-1.69212 5.4012,-3.2365 h 6.03428 c -1.9326,5.88634 -6.03409,8.39742 -11.67993,8.39742 -7.86109,0 -12.73514,-5.40558 -12.73514,-13.12323 0,-7.48134 5.16097,-13.17335 12.73514,-13.17335 z m 27.60244,0 c 4.96647,0 10.94974,1.10972 10.94974,7.0931 v 12.97957 c 0,2.26592 0.2447,4.5358 0.86919,5.5485 h -6.9453 c -0.24474,-0.77219 -0.43461,-1.59098 -0.48525,-2.41381 -2.16887,2.27015 -5.35458,3.08922 -8.39689,3.08922 -4.72596,0 -8.48993,-2.36342 -8.48993,-7.47758 0,-5.64582 4.24501,-6.99605 8.48993,-7.57835 4.19849,-0.6245 8.11009,-0.48076 8.11009,-3.27835 0,-2.94528 -2.02962,-3.38016 -4.439,-3.38016 -2.60773,0 -4.29564,1.06357 -4.53617,3.76412 h -6.85282 c 0.38399,-6.41801 6.12701,-8.34626 11.72641,-8.34626 z m 30.83069,0 c 0.48104,0 1.05883,0.0968 1.49345,0.24029 v 6.3717 c -0.6245,-0.14768 -1.63698,-0.24494 -2.4598,-0.24494 -5.0171,0 -6.75566,3.62034 -6.75566,8.01295 v 11.24117 h -6.85281 v -24.94628 h 6.51537 v 4.63331 h 0.0971 c 1.25322,-3.13516 4.63304,-5.3082 7.9623,-5.3082 z m 16.16077,0 c 5.88634,0 11.2918,3.08838 11.72642,9.45575 h -6.70502 c -0.43462,-2.79759 -2.21968,-4.29121 -5.06791,-4.29121 -4.3926,0 -5.83943,4.43913 -5.83943,8.10596 0,3.56978 1.40074,7.86516 5.69629,7.86516 3.18158,0 5.01724,-2.02929 5.45186,-5.0674 h 6.60787 c -0.86502,6.60789 -5.45175,10.22832 -12.01322,10.22832 -7.52776,0 -12.59148,-5.30866 -12.59148,-12.78578 0,-7.76828 4.62878,-13.5108 12.73462,-13.5108 z m 105.62198,0 c 7.86532,0 12.92892,5.21098 12.92892,13.17335 0,7.91175 -5.0636,13.12323 -12.92892,13.12323 -7.81892,0 -12.88242,-5.21148 -12.88242,-13.12323 0,-7.96237 5.0635,-13.17335 12.88242,-13.17335 z m 31.74638,0 c 3.13516,0 5.93714,1.15585 7.28741,4.14755 1.44732,-2.16888 4.05076,-4.14755 7.52771,-4.14755 5.30825,0 9.1183,2.45958 9.1183,8.924 v 16.69717 h -6.85229 v -14.13557 c 0,-3.32926 -0.29137,-6.08077 -4.19871,-6.08077 -3.86093,0 -4.58267,3.18169 -4.58267,6.32106 v 13.89528 h -6.85229 v -13.99243 c 0,-2.89464 0.1939,-6.22391 -4.14807,-6.22391 -1.35027,0 -4.63331,0.86969 -4.63331,5.74332 v 14.47302 h -6.8523 v -24.94628 h 6.46834 v 3.38015 h 0.093 c 1.78489,-2.55707 4.39265,-4.05504 7.62486,-4.05504 z m 43.37771,0 c 7.8189,0 11.33781,6.3205 11.33781,13.41365 0,6.65852 -3.66669,12.88293 -10.94972,12.88293 -2.99169,0 -5.83977,-1.30408 -7.48119,-3.76411 h -0.0971 v 11.86956 h -6.85282 v -33.72714 h 6.51485 v 3.18585 h 0.0971 c 1.64143,-2.65413 4.34233,-3.86074 7.43107,-3.86074 z m 87.7657,0 c 7.28726,0 9.11831,4.10147 9.11831,10.27895 v 15.34222 h -6.84816 v -14.08906 c 0,-4.10145 -1.2072,-6.12728 -4.39301,-6.12728 -3.71322,0 -5.30821,2.07188 -5.30821,7.13962 v 13.07672 h -6.85229 v -24.94628 h 6.51485 v 3.47266 h 0.14779 c 1.73425,-2.7976 4.7261,-4.14755 7.62072,-4.14755 z m 24.26984,0 c 3.28285,0 5.78913,1.10976 7.43056,4.0044 h 0.0971 v -3.32951 h 6.51536 v 23.35568 c 0,4.10145 -1.44732,11.04687 -12.93306,11.04687 -4.92007,0 -10.66331,-2.31658 -11.00088,-8.00881 h 6.80217 c 0.62872,2.55707 2.70503,3.42614 5.11442,3.42614 3.8145,0 5.5484,-2.60762 5.50199,-6.1774 v -3.27887 h -0.0971 c -1.49377,2.6035 -4.48537,3.85713 -7.47707,3.85713 -7.48137,0 -10.66291,-5.69234 -10.66291,-12.54497 0,-6.46442 3.71332,-12.35066 10.70942,-12.35066 z m -652.24132,0.67489 h 7.19026 l 5.25756,17.03462 h 0.0972 l 5.26169,-17.03462 h 6.80217 l -8.44341,24.94628 h -7.62487 z m 555.64308,0 h 6.85282 v 14.08906 c 0,4.10145 1.20675,6.12728 4.39249,6.12728 3.71325,0 5.3082,-2.07188 5.3082,-7.13962 v -13.07672 h 6.84817 v 24.94628 h -6.51072 v -3.47266 h -0.14779 c -1.73426,2.7976 -4.72559,4.14807 -7.62021,4.14807 -7.28726,0 -9.12296,-4.10147 -9.12296,-10.27896 z m 45.78997,0 h 6.85281 v 24.94628 h -6.85281 z m -861.15931,4.48965 c -4.3419,0 -5.5992,3.37571 -5.6963,5.30407 h 11.1482 c -0.6287,-3.47273 -2.1226,-5.30407 -5.4519,-5.30407 z m 92.0616,0 c -4.342,0 -5.5993,3.37571 -5.6963,5.30407 h 11.1481 c -0.6287,-3.47273 -2.1226,-5.30407 -5.4518,-5.30407 z m 57.9479,0 c -4.6332,0 -6.0343,4.00442 -6.0343,8.00881 0,3.95376 1.4011,7.96231 6.0343,7.96231 4.6795,0 6.0761,-4.00855 6.0761,-7.96231 0,-4.00439 -1.3966,-8.00881 -6.0761,-8.00881 z m 94.42313,0 c -4.48543,0 -6.03012,3.85672 -6.03012,7.95817 0,3.91156 1.7852,8.01295 6.03012,8.01295 4.53607,0 5.88594,-3.95802 5.88594,-8.05946 0,-4.05503 -1.44692,-7.91166 -5.88594,-7.91166 z m 138.09183,0 c -4.34197,0 -5.59977,3.37571 -5.69682,5.30407 h 11.14816 c -0.62873,-3.47273 -2.12211,-5.30407 -5.45134,-5.30407 z m 28.17606,0 c -4.48543,0 -6.02961,3.85672 -6.02961,7.95817 0,3.91156 1.78466,8.01295 6.02961,8.01295 4.53602,0 5.88645,-3.95802 5.88645,-8.05946 0,-4.05503 -1.44748,-7.91166 -5.88645,-7.91166 z m 80.09589,0 c -4.34198,0 -5.59978,3.37572 -5.69683,5.30407 h 11.14817 c -0.62873,-3.47273 -2.12209,-5.30407 -5.45134,-5.30407 z m 53.6055,0 c -4.34197,0 -5.59924,3.37572 -5.69629,5.30407 h 11.14814 c -0.6287,-3.47273 -2.12259,-5.30407 -5.45185,-5.30407 z m 180.40604,0 c -4.63312,0 -6.03374,4.00442 -6.03374,8.00881 0,3.95376 1.40062,7.96231 6.03374,7.96231 4.67953,0 6.07663,-4.00855 6.07663,-7.96231 0,-4.00439 -1.3971,-8.00881 -6.07663,-8.00881 z m 73.63013,0 c -4.48965,0 -5.93711,4.00451 -5.93711,8.05532 0,4.05503 1.5446,7.9158 5.98362,7.9158 4.48542,0 5.9371,-3.86077 5.9371,-7.9158 0,-3.95376 -1.59522,-8.05532 -5.98361,-8.05532 z m 115.21725,0 c -3.85673,0 -5.54849,3.37565 -5.54849,7.0931 0,3.56979 1.34998,7.47707 5.54849,7.47707 3.91154,0 5.83996,-3.32902 5.83996,-6.89881 0,-4.05503 -1.40095,-7.67136 -5.83996,-7.67136 z m 1644.80867,4.03593 c 0,0 9.3035,2.00117 9.3384,2.00763 0.05,0.009 0.033,0.0522 0.033,0.0522 l -0.1292,0.47646 h -0.022 c 0,0 -0.1549,-0.0211 -0.2367,0.12919 l -0.138,0.76843 c 0,0 -0.01,0.0403 -0.053,0.0403 h -0.3405 -0.071 v 0.2248 c 0,0.0129 -0.01,0.0222 -0.02,0.0222 h -0.059 c -0.035,0 -0.034,0.0268 -0.034,0.0615 0,0.0336 -0.014,0.21867 -0.1436,0.32608 -0.019,0.0166 -0.014,0.062 0.027,0.062 h 0.042 c 0.035,0 0.037,0.0215 0.025,0.0372 -0.011,0.0207 -0.016,0.0873 -0.016,0.1142 v 0.10594 c 0,0.0164 0,0.0289 -0.023,0.0289 h -0.018 c 0,0 -0.014,9e-5 -0.014,0.016 v 0.0217 5.21622 c 0.023,0.025 0.069,0.0707 0.078,0.0765 0.01,0.006 0.01,0.0125 0.01,0.0217 v 0.0868 c 0,0.006 0,0.0161 0.01,0.0191 0,0.006 0.012,0.006 0.02,0.006 h 0.066 c 0.01,0 0.021,0.0113 0.021,0.0212 v 0.13177 0.0191 0.52762 h 0.7322 v 1.2516 h 0.7375 v 1.26349 l -19.6272,-0.004 V 132.184 h 0.7374 v -1.2516 h 0.7312 v -0.52762 -0.0191 -0.13177 c 0,-0.01 0.011,-0.0212 0.022,-0.0212 h 0.066 c 0.01,0 0.016,-9e-5 0.021,-0.006 0,-0.003 0.01,-0.0127 0.01,-0.0191 v -0.0868 c 0,-0.009 0,-0.0161 0.01,-0.0217 0,-0.003 0.059,-0.0608 0.074,-0.0765 v -5.21622 c 0,0 0,-0.006 0,-0.0217 0,-0.0159 -0.014,-0.016 -0.014,-0.016 h -0.022 c -0.018,0 -0.021,-0.0126 -0.021,-0.0289 v -0.10594 c 0,-0.0269 0,-0.0935 -0.014,-0.1142 -0.01,-0.0157 -0.01,-0.0372 0.027,-0.0372 h 0.043 c 0.038,0 0.044,-0.0454 0.027,-0.062 -0.1289,-0.11021 -0.1467,-0.29616 -0.1467,-0.32866 0,-0.0321 0,-0.0589 -0.029,-0.0589 h -0.061 c -0.011,0 -0.02,-0.009 -0.02,-0.0222 v -0.2248 h -0.072 -0.3374 c -0.057,0 -0.06,-0.0548 -0.06,-0.0548 l -0.1405,-0.76481 c -0.08,-0.1369 -0.2254,-0.11834 -0.2254,-0.11834 h -0.025 l -0.1287,-0.47646 c 0,0 -0.018,-0.0429 0.033,-0.0522 0.021,-0.003 9.3332,-2.00763 9.3332,-2.00763 z m -6.919,3.4742 v 0.2248 c 0,0.0129 -0.01,0.0222 -0.018,0.0222 h -0.06 c -0.032,0 -0.033,0.0266 -0.033,0.0615 0,0.0336 -0.013,0.21897 -0.1437,0.3266 -0.018,0.0164 -0.013,0.0615 0.028,0.0615 h 0.043 c 0.033,0 0.034,0.0215 0.025,0.0372 -0.013,0.0207 -0.018,0.0871 -0.018,0.1142 v 0.10594 c 0,0.0164 0,0.0289 -0.022,0.0289 h -0.019 c 0,0 -0.014,-2.1e-4 -0.014,0.0155 v 0.0227 5.2157 c 0.022,0.025 0.069,0.0709 0.076,0.0765 0.01,0.006 0.01,0.0122 0.01,0.0212 v 0.0873 c 0,0.006 0,0.0163 0.01,0.0191 0.01,0.006 0.013,0.006 0.021,0.006 h 0.066 c 0.012,0 0.021,0.0113 0.021,0.0212 v 0.13177 h 1.6717 v -0.13177 c 0,-0.01 0.01,-0.0212 0.02,-0.0212 h 0.065 c 0.01,0 0.017,1.3e-4 0.021,-0.006 0,-0.003 0.01,-0.0127 0.01,-0.0191 v -0.0873 c 0,-0.009 0,-0.0154 0.01,-0.0212 0,-0.003 0.06,-0.0608 0.076,-0.0765 v -5.2157 -0.0227 c 0,-0.0157 -0.014,-0.0155 -0.014,-0.0155 h -0.023 c -0.019,0 -0.024,-0.0126 -0.024,-0.0289 v -0.10594 c 0,-0.0271 0,-0.0935 -0.012,-0.1142 -0.011,-0.0157 -0.01,-0.0372 0.025,-0.0372 h 0.044 c 0.036,0 0.044,-0.0451 0.026,-0.0615 -0.1275,-0.11021 -0.1452,-0.29647 -0.1452,-0.32918 0,-0.0321 0,-0.0589 -0.029,-0.0589 h -0.061 c -0.011,0 -0.021,-0.009 -0.021,-0.0222 v -0.2248 z m 3.0598,0 v 0.2248 c 0,0.0129 -0.01,0.0222 -0.017,0.0222 h -0.061 c -0.033,0 -0.033,0.0266 -0.033,0.0615 0,0.0336 -0.013,0.21897 -0.1437,0.3266 -0.018,0.0164 -0.014,0.0615 0.026,0.0615 h 0.045 c 0.033,0 0.033,0.0215 0.023,0.0372 -0.011,0.0207 -0.016,0.0871 -0.016,0.1142 v 0.10594 c 0,0.0164 0,0.0289 -0.022,0.0289 h -0.019 c 0,0 -0.014,-2.1e-4 -0.014,0.0155 0,0.0157 0,0.0227 0,0.0227 v 5.2157 c 0.021,0.025 0.068,0.0709 0.076,0.0765 0.01,0.006 0.01,0.0122 0.01,0.0212 v 0.0873 c 0,0.006 0,0.0163 0.01,0.0191 0,0.006 0.012,0.006 0.02,0.006 h 0.067 c 0.011,0 0.019,0.0113 0.019,0.0212 v 0.13177 h 1.6702 v -0.13177 c 0,-0.01 0.01,-0.0212 0.023,-0.0212 h 0.065 c 0.01,0 0.016,1.3e-4 0.021,-0.006 0.01,-0.003 0.01,-0.0127 0.01,-0.0191 v -0.0873 c 0,-0.009 0,-0.0154 0.01,-0.0212 0,-0.003 0.06,-0.0608 0.076,-0.0765 v -5.2157 -0.0227 c 0,-0.0157 -0.016,-0.0155 -0.016,-0.0155 h -0.02 c -0.021,0 -0.024,-0.0126 -0.024,-0.0289 v -0.10594 c 0,-0.0271 0,-0.0935 -0.013,-0.1142 -0.01,-0.0157 -0.01,-0.0372 0.027,-0.0372 h 0.042 c 0.036,0 0.044,-0.0451 0.026,-0.0615 -0.1276,-0.11021 -0.1447,-0.29647 -0.1447,-0.32918 0,-0.0321 0,-0.0589 -0.028,-0.0589 h -0.062 c -0.011,0 -0.021,-0.009 -0.021,-0.0222 v -0.2248 z m 3.0618,0 v 0.2248 c 0,0.0129 -0.01,0.0222 -0.02,0.0222 h -0.06 c -0.034,0 -0.034,0.0266 -0.034,0.0615 0,0.0336 -0.012,0.21897 -0.1426,0.3266 -0.018,0.0164 -0.013,0.0615 0.028,0.0615 h 0.042 c 0.033,0 0.034,0.0215 0.023,0.0372 -0.011,0.0207 -0.016,0.0871 -0.016,0.1142 v 0.10594 c 0,0.0164 0,0.0289 -0.022,0.0289 h -0.019 c 0,0 -0.015,-2.1e-4 -0.015,0.0155 0,0.0157 0,0.0227 0,0.0227 v 5.2157 c 0.021,0.025 0.068,0.0709 0.076,0.0765 0.01,0.006 0.01,0.0122 0.01,0.0212 v 0.0873 c 0,0.006 0,0.0163 0.01,0.0191 0,0.006 0.012,0.006 0.019,0.006 h 0.069 c 0.011,0 0.02,0.0113 0.02,0.0212 v 0.13177 h 1.6707 v -0.13177 c 0,-0.01 0.01,-0.0212 0.021,-0.0212 h 0.065 c 0.01,0 0.016,1.3e-4 0.021,-0.006 0,-0.003 0.01,-0.0127 0.01,-0.0191 v -0.0873 c 0,-0.009 0,-0.0154 0.01,-0.0212 0.01,-0.003 0.061,-0.0608 0.077,-0.0765 v -5.2157 c 0,0 0,-0.007 0,-0.0227 0,-0.0157 -0.014,-0.0155 -0.014,-0.0155 h -0.023 c -0.019,0 -0.021,-0.0126 -0.021,-0.0289 v -0.10594 c 0,-0.0271 0,-0.0935 -0.013,-0.1142 -0.01,-0.0157 -0.01,-0.0372 0.022,-0.0372 h 0.045 c 0.038,0 0.045,-0.0451 0.026,-0.0615 -0.1287,-0.11021 -0.1442,-0.29646 -0.1442,-0.32918 0,-0.0321 0,-0.0589 -0.031,-0.0589 h -0.06 c -0.011,0 -0.021,-0.009 -0.021,-0.0222 v -0.2248 z m 3.0598,0 v 0.2248 c 0,0.0129 -0.01,0.0222 -0.021,0.0222 h -0.06 c -0.034,0 -0.034,0.0266 -0.034,0.0615 0,0.0336 -0.011,0.21897 -0.1421,0.3266 -0.017,0.0164 -0.014,0.0615 0.028,0.0615 h 0.041 c 0.034,0 0.035,0.0215 0.026,0.0372 -0.012,0.0207 -0.017,0.0871 -0.017,0.1142 v 0.10594 c 0,0.0164 0,0.0289 -0.022,0.0289 h -0.019 c 0,0 -0.015,-2.1e-4 -0.015,0.0155 v 0.0227 5.2157 c 0.024,0.025 0.07,0.0709 0.079,0.0765 0.01,0.006 0.01,0.0122 0.01,0.0212 v 0.0873 c 0,0.006 0,0.0163 0.01,0.0191 0,0.006 0.013,0.006 0.021,0.006 h 0.066 c 0.011,0 0.021,0.0113 0.021,0.0212 v 0.13177 h 1.6712 v -0.13177 c 0,-0.01 0.01,-0.0212 0.02,-0.0212 h 0.067 c 0.01,0 0.016,1.3e-4 0.019,-0.006 0.01,-0.003 0.01,-0.0127 0.01,-0.0191 v -0.0873 c 0,-0.009 0,-0.0154 0.01,-0.0212 0,-0.003 0.061,-0.0608 0.076,-0.0765 v -5.2157 c 0,0 0,-0.007 0,-0.0227 0,-0.0157 -0.014,-0.0155 -0.014,-0.0155 h -0.021 c -0.021,0 -0.023,-0.0126 -0.023,-0.0289 v -0.10594 c 0,-0.0271 0,-0.0935 -0.013,-0.1142 -0.011,-0.0157 -0.01,-0.0372 0.027,-0.0372 h 0.042 c 0.037,0 0.042,-0.0451 0.025,-0.0615 -0.1274,-0.11021 -0.1442,-0.29646 -0.1442,-0.32918 0,-0.0321 0,-0.0589 -0.029,-0.0589 h -0.061 c -0.011,0 -0.019,-0.009 -0.019,-0.0222 v -0.2248 z m 3.0582,0 v 0.2248 c 0,0.0129 -0.01,0.0222 -0.019,0.0222 h -0.06 c -0.034,0 -0.033,0.0266 -0.033,0.0615 0,0.0336 -0.012,0.21919 -0.1431,0.3266 -0.019,0.0164 -0.015,0.0615 0.028,0.0615 h 0.041 c 0.035,0 0.036,0.0215 0.026,0.0372 -0.012,0.0207 -0.017,0.0871 -0.017,0.1142 v 0.10594 c 0,0.0164 0,0.0289 -0.021,0.0289 h -0.019 c 0,0 -0.016,-2.1e-4 -0.016,0.0155 v 0.0227 5.2157 c 0.022,0.025 0.07,0.0707 0.077,0.0765 0.01,0.006 0.01,0.0122 0.01,0.0212 v 0.0873 c 0,0.006 0,0.0161 0.01,0.0191 0.01,0.006 0.013,0.006 0.021,0.006 h 0.066 c 0.011,0 0.021,0.0113 0.021,0.0212 v 0.13177 h 1.6707 v -0.13177 c 0,-0.01 0.01,-0.0212 0.019,-0.0212 h 0.067 c 0.01,0 0.017,-9e-5 0.02,-0.006 0,-0.003 0.01,-0.0127 0.01,-0.0191 v -0.0873 c 0,-0.009 0,-0.0156 0.01,-0.0212 0.01,-0.003 0.061,-0.0608 0.078,-0.0765 v -5.2157 -0.0227 c 0,-0.0157 -0.016,-0.0155 -0.016,-0.0155 h -0.022 c -0.019,0 -0.021,-0.0126 -0.021,-0.0289 v -0.10594 c 0,-0.0271 0,-0.0935 -0.013,-0.1142 -0.01,-0.0157 -0.01,-0.0372 0.022,-0.0372 h 0.047 c 0.036,0 0.044,-0.0451 0.025,-0.0615 -0.1289,-0.11021 -0.1442,-0.29647 -0.1442,-0.32918 0,-0.0321 0,-0.0589 -0.03,-0.0589 h -0.061 c -0.011,0 -0.02,-0.009 -0.02,-0.0222 v -0.2248 z m -2261.06458,0.73898 c -1.16039,1.0127 -3.57384,1.06347 -5.6963,1.44745 -2.12246,0.43462 -4.0509,1.15631 -4.0509,3.66696 0,2.55708 1.97869,3.18585 4.1982,3.18585 5.35463,0 5.549,-4.24906 5.549,-5.7428 z m 273.57607,0 c -1.16039,1.0127 -3.57437,1.06347 -5.69683,1.44745 -2.12243,0.43462 -4.05037,1.1563 -4.05037,3.66696 0,2.55708 1.97868,3.18585 4.19817,3.18585 5.35469,0 5.54903,-4.24906 5.54903,-5.7428 z" />
  </g>
</svg>
