<?xml version="1.0" encoding="UTF-8" standalone="no"?>
<!-- Created with Inkscape (http://www.inkscape.org/) -->

<svg
   version="1.1"
   id="svg1"
   width="1796.92"
   height="1009.2307"
   viewBox="0 0 1796.92 1009.2307"
   sodipodi:docname="UCL ARC lozenge logo black.pdf"
   inkscape:version="1.3 (0e150ed6c4, 2023-07-21)"
   xmlns:inkscape="http://www.inkscape.org/namespaces/inkscape"
   xmlns:sodipodi="http://sodipodi.sourceforge.net/DTD/sodipodi-0.dtd"
   xmlns="http://www.w3.org/2000/svg"
   xmlns:svg="http://www.w3.org/2000/svg">
  <defs
     id="defs1">
    <clipPath
       clipPathUnits="userSpaceOnUse"
       id="clipPath3">
      <path
         d="M 0,756.923 H 1347.692 V 0 H 0 Z"
         transform="translate(-329.81531,-571.67532)"
         id="path3" />
    </clipPath>
    <clipPath
       clipPathUnits="userSpaceOnUse"
       id="clipPath5">
      <path
         d="M 0,756.923 H 1347.692 V 0 H 0 Z"
         transform="translate(-351.63021,-542.05831)"
         id="path5" />
    </clipPath>
    <clipPath
       clipPathUnits="userSpaceOnUse"
       id="clipPath7">
      <path
         d="M 0,756.923 H 1347.692 V 0 H 0 Z"
         transform="translate(-358.23821,-572.72052)"
         id="path7" />
    </clipPath>
    <clipPath
       clipPathUnits="userSpaceOnUse"
       id="clipPath9">
      <path
         d="M 0,756.923 H 1347.692 V 0 H 0 Z"
         transform="translate(-323.19031,-542.05831)"
         id="path9" />
    </clipPath>
    <clipPath
       clipPathUnits="userSpaceOnUse"
       id="clipPath11">
      <path
         d="M 0,756.923 H 1347.692 V 0 H 0 Z"
         transform="translate(-308.98261,-542.05831)"
         id="path11" />
    </clipPath>
    <clipPath
       clipPathUnits="userSpaceOnUse"
       id="clipPath13">
      <path
         d="M 0,756.923 H 1347.692 V 0 H 0 Z"
         transform="translate(-379.12381,-527.83362)"
         id="path13" />
    </clipPath>
    <clipPath
       clipPathUnits="userSpaceOnUse"
       id="clipPath15">
      <path
         d="M 0,756.923 H 1347.692 V 0 H 0 Z"
         transform="matrix(1,0,0,-1,4.4971001,191.5332)"
         id="path15" />
    </clipPath>
  </defs>
  <sodipodi:namedview
     id="namedview1"
     pagecolor="#ffffff"
     bordercolor="#666666"
     borderopacity="1.0"
     inkscape:showpageshadow="2"
     inkscape:pageopacity="0.0"
     inkscape:pagecheckerboard="0"
     inkscape:deskcolor="#d1d1d1"
     inkscape:zoom="0.69229567"
     inkscape:cx="898.46004"
     inkscape:cy="504.8421"
     inkscape:window-width="1920"
     inkscape:window-height="991"
     inkscape:window-x="1341"
     inkscape:window-y="1344"
     inkscape:window-maximized="1"
     inkscape:current-layer="g1">
    <inkscape:page
       x="0"
       y="0"
       inkscape:label="1"
       id="page1"
       width="1796.92"
       height="1009.2307"
       margin="3.0947199 0 0"
       bleed="0" />
  </sodipodi:namedview>
  <g
     id="g1"
     inkscape:groupmode="layer"
     inkscape:label="1">
    <g
       id="group-MC0">
      <path
         id="path2"
         d="m 0,0 c 0,-0.06 -0.043,-0.102 -0.093,-0.102 h -0.281 c -0.158,0 -0.158,-0.126 -0.158,-0.288 0,-0.156 -0.054,-1.015 -0.662,-1.515 -0.086,-0.076 -0.06,-0.288 0.132,-0.288 h 0.198 c 0.153,0 0.16,-0.099 0.109,-0.172 -0.052,-0.096 -0.072,-0.403 -0.072,-0.529 v -0.493 c 0,-0.076 -0.016,-0.135 -0.102,-0.135 h -0.086 c 0,0 -0.07,0 -0.07,-0.073 0,-0.073 0.007,-0.103 0.007,-0.103 V -27.93 c 0.096,-0.116 0.317,-0.331 0.353,-0.357 0.027,-0.027 0.033,-0.057 0.033,-0.099 v -0.404 c 0,-0.03 0.004,-0.076 0.027,-0.089 0.02,-0.027 0.056,-0.027 0.086,-0.027 h 0.318 c 0.049,0 0.096,-0.053 0.096,-0.099 v -0.612 h 7.762 v 0.612 c 0,0.046 0.046,0.099 0.095,0.099 h 0.301 c 0.037,0 0.073,0 0.096,0.027 0.023,0.013 0.03,0.059 0.03,0.089 v 0.404 c 0,0.042 0.023,0.072 0.037,0.099 0.023,0.013 0.284,0.284 0.357,0.357 v 24.232 c 0,0 -0.007,0.03 -0.007,0.103 0,0.073 -0.066,0.073 -0.066,0.073 H 8.337 c -0.086,0 -0.099,0.059 -0.099,0.135 v 0.493 c 0,0.126 -0.013,0.433 -0.059,0.529 -0.046,0.073 -0.037,0.172 0.105,0.172 H 8.49 c 0.175,0 0.214,0.212 0.125,0.288 -0.598,0.512 -0.671,1.376 -0.671,1.528 0,0.149 -0.007,0.275 -0.142,0.275 H 7.524 C 7.474,-0.102 7.428,-0.06 7.428,0 V 1.045 H 0 Z"
         style="fill:#231f20;fill-opacity:1;fill-rule:nonzero;stroke:none"
         transform="matrix(1.3333333,0,0,-1.3333333,439.75373,246.99693)"
         clip-path="url(#clipPath3)" />
      <path
         id="path4"
         d="m 0,0 v 0.612 c 0,0.046 0.036,0.099 0.092,0.099 h 0.311 c 0.027,0 0.073,0 0.086,0.027 0.024,0.013 0.03,0.059 0.03,0.089 v 0.404 c 0,0.042 0.013,0.072 0.036,0.099 0.023,0.013 0.285,0.284 0.357,0.357 v 24.232 c 0,0 -0.006,0.03 -0.006,0.103 0,0.073 -0.066,0.073 -0.066,0.073 H 0.744 c -0.096,0 -0.106,0.059 -0.106,0.135 v 0.493 c 0,0.126 -0.007,0.433 -0.06,0.529 -0.052,0.073 -0.035,0.172 0.123,0.172 h 0.195 c 0.172,0 0.199,0.212 0.119,0.288 -0.592,0.512 -0.671,1.376 -0.671,1.528 0,0.149 -0.007,0.275 -0.133,0.275 h -0.288 c -0.049,0 -0.086,0.042 -0.086,0.102 v 1.045 H -7.6 v -1.045 c 0,-0.06 -0.037,-0.102 -0.097,-0.102 h -0.277 c -0.159,0 -0.159,-0.126 -0.159,-0.288 0,-0.156 -0.053,-1.015 -0.661,-1.515 -0.08,-0.076 -0.066,-0.288 0.132,-0.288 h 0.192 c 0.158,0 0.165,-0.099 0.123,-0.172 -0.057,-0.096 -0.08,-0.403 -0.08,-0.529 V 26.23 c 0,-0.076 -0.006,-0.135 -0.103,-0.135 h -0.086 c 0,0 -0.069,0 -0.069,-0.073 V 25.919 1.687 C -8.573,1.571 -8.361,1.356 -8.318,1.33 -8.295,1.303 -8.289,1.273 -8.289,1.231 V 0.827 c 0,-0.03 0.011,-0.076 0.024,-0.089 0.02,-0.027 0.059,-0.027 0.096,-0.027 h 0.307 c 0.05,0 0.096,-0.053 0.096,-0.099 V 0 Z"
         style="fill:#231f20;fill-opacity:1;fill-rule:nonzero;stroke:none"
         transform="matrix(1.3333333,0,0,-1.3333333,468.84027,286.48627)"
         clip-path="url(#clipPath5)" />
      <path
         id="path6"
         d="m 0,0 v -1.045 c 0,-0.06 -0.04,-0.102 -0.089,-0.102 h -0.278 c -0.159,0 -0.153,-0.126 -0.153,-0.288 0,-0.156 -0.059,-1.016 -0.667,-1.515 -0.086,-0.076 -0.067,-0.288 0.132,-0.288 h 0.191 c 0.162,0 0.166,-0.099 0.123,-0.172 -0.056,-0.096 -0.079,-0.403 -0.079,-0.529 v -0.493 c 0,-0.076 -0.014,-0.135 -0.096,-0.135 h -0.09 c 0,0 -0.072,0 -0.072,-0.073 v -0.103 -24.232 c 0.105,-0.116 0.323,-0.331 0.36,-0.358 0.026,-0.026 0.037,-0.056 0.037,-0.098 v -0.404 c 0,-0.03 0.012,-0.076 0.023,-0.09 0.023,-0.026 0.059,-0.026 0.096,-0.026 h 0.307 c 0.05,0 0.096,-0.053 0.096,-0.099 v -0.612 h 7.762 v 0.612 c 0,0.046 0.04,0.099 0.089,0.099 h 0.311 c 0.037,0 0.08,0 0.093,0.026 0.023,0.014 0.03,0.06 0.03,0.09 v 0.404 c 0,0.042 0.023,0.072 0.032,0.098 0.028,0.014 0.282,0.285 0.361,0.358 v 24.232 0.103 c 0,0.073 -0.073,0.073 -0.073,0.073 H 8.344 c -0.086,0 -0.096,0.059 -0.096,0.135 v 0.493 c 0,0.126 -0.01,0.433 -0.062,0.529 -0.044,0.073 -0.037,0.172 0.105,0.172 h 0.215 c 0.169,0 0.205,0.212 0.116,0.288 -0.599,0.512 -0.671,1.376 -0.671,1.528 0,0.149 -0.007,0.275 -0.139,0.275 H 7.531 c -0.05,0 -0.093,0.042 -0.093,0.102 V 0 Z"
         style="fill:#231f20;fill-opacity:1;fill-rule:nonzero;stroke:none"
         transform="matrix(1.3333333,0,0,-1.3333333,477.65093,245.60333)"
         clip-path="url(#clipPath7)" />
      <path
         id="path8"
         d="m 0,0 v 0.612 c 0,0.046 0.043,0.099 0.103,0.099 h 0.301 c 0.036,0 0.073,0 0.096,0.027 0.023,0.013 0.036,0.059 0.036,0.089 v 0.404 c 0,0.042 0.013,0.072 0.03,0.099 0.02,0.013 0.281,0.284 0.357,0.357 v 24.232 0.103 c 0,0.073 -0.076,0.073 -0.076,0.073 H 0.755 c -0.097,0 -0.109,0.059 -0.109,0.135 v 0.493 c 0,0.126 -0.004,0.433 -0.06,0.529 -0.043,0.073 -0.037,0.172 0.122,0.172 h 0.198 c 0.169,0 0.206,0.212 0.12,0.288 -0.593,0.512 -0.672,1.376 -0.672,1.528 0,0.149 0,0.275 -0.132,0.275 h -0.288 c -0.053,0 -0.096,0.042 -0.096,0.102 v 1.045 H -7.6 v -1.045 c 0,-0.06 -0.029,-0.102 -0.082,-0.102 h -0.281 c -0.153,0 -0.153,-0.126 -0.153,-0.288 0,-0.156 -0.059,-1.015 -0.668,-1.515 -0.086,-0.076 -0.066,-0.288 0.122,-0.288 h 0.209 c 0.152,0 0.155,-0.099 0.109,-0.172 -0.053,-0.096 -0.073,-0.403 -0.073,-0.529 V 26.23 c 0,-0.076 -0.016,-0.135 -0.102,-0.135 h -0.09 c 0,0 -0.066,0 -0.066,-0.073 0,-0.073 0.007,-0.103 0.007,-0.103 V 1.687 C -8.572,1.571 -8.351,1.356 -8.314,1.33 -8.291,1.303 -8.281,1.273 -8.281,1.231 V 0.827 c 0,-0.03 0.003,-0.076 0.026,-0.089 0.02,-0.027 0.057,-0.027 0.093,-0.027 h 0.311 c 0.049,0 0.092,-0.053 0.092,-0.099 l 0,-0.612 z"
         style="fill:#231f20;fill-opacity:1;fill-rule:nonzero;stroke:none"
         transform="matrix(1.3333333,0,0,-1.3333333,430.9204,286.48627)"
         clip-path="url(#clipPath9)" />
      <path
         id="path10"
         d="m 0,0 v 0.612 c 0,0.046 0.043,0.099 0.095,0.099 h 0.302 c 0.036,0 0.079,0 0.095,0.027 0.021,0.013 0.03,0.059 0.03,0.089 v 0.404 c 0,0.042 0.021,0.072 0.037,0.099 0.019,0.013 0.281,0.284 0.354,0.357 v 24.232 0.103 c 0,0.073 -0.063,0.073 -0.063,0.073 H 0.744 c -0.089,0 -0.109,0.059 -0.109,0.135 v 0.493 c 0,0.126 -0.006,0.433 -0.057,0.529 -0.049,0.073 -0.035,0.172 0.116,0.172 h 0.205 c 0.169,0 0.206,0.212 0.12,0.288 -0.592,0.512 -0.675,1.376 -0.675,1.528 0,0.149 0,0.275 -0.133,0.275 h -0.284 c -0.053,0 -0.096,0.042 -0.096,0.102 v 1.045 h -7.438 v -1.045 c 0,-0.06 -0.03,-0.102 -0.086,-0.102 h -0.281 c -0.149,0 -0.149,-0.126 -0.149,-0.288 0,-0.156 -0.059,-1.015 -0.668,-1.515 -0.086,-0.076 -0.062,-0.288 0.129,-0.288 h 0.199 c 0.155,0 0.158,-0.099 0.119,-0.172 -0.06,-0.096 -0.083,-0.403 -0.083,-0.529 V 26.23 c 0,-0.076 -0.006,-0.135 -0.103,-0.135 h -0.086 c 0,0 -0.066,0 -0.066,-0.073 V 25.919 1.687 C -8.579,1.571 -8.361,1.356 -8.328,1.33 -8.298,1.303 -8.291,1.273 -8.291,1.231 V 0.827 c 0,-0.03 0.006,-0.076 0.026,-0.089 0.023,-0.027 0.06,-0.027 0.096,-0.027 h 0.307 c 0.054,0 0.096,-0.053 0.096,-0.099 V 0 Z"
         style="fill:#231f20;fill-opacity:1;fill-rule:nonzero;stroke:none"
         transform="matrix(1.3333333,0,0,-1.3333333,411.9768,286.48627)"
         clip-path="url(#clipPath11)" />
      <path
         id="path12"
         d="M 0,0 -91.185,0.017 V 5.87 h 3.426 v 5.815 h 3.397 v 2.451 0.089 0.612 c 0,0.046 0.049,0.099 0.102,0.099 h 0.307 c 0.037,0 0.073,0 0.096,0.026 0.013,0.014 0.03,0.06 0.03,0.09 v 0.403 c 0,0.043 0.013,0.073 0.037,0.099 0.013,0.014 0.274,0.285 0.347,0.358 v 24.232 c 0,0 -0.007,0.03 -0.007,0.102 0,0.074 -0.066,0.074 -0.066,0.074 h -0.103 c -0.082,0 -0.095,0.059 -0.095,0.135 v 0.493 c 0,0.125 -0.01,0.433 -0.063,0.529 -0.043,0.073 -0.037,0.172 0.122,0.172 h 0.199 c 0.175,0 0.204,0.211 0.125,0.288 -0.599,0.512 -0.681,1.376 -0.681,1.527 0,0.149 0,0.275 -0.132,0.275 h -0.285 c -0.053,0 -0.095,0.043 -0.095,0.103 v 1.045 h -0.335 -1.567 c -0.265,0 -0.278,0.254 -0.278,0.254 l -0.652,3.552 c -0.373,0.636 -1.048,0.55 -1.048,0.55 h -0.116 l -0.595,2.215 c 0,0 -0.086,0.199 0.149,0.242 0.096,0.016 43.361,9.326 43.361,9.326 0,0 43.223,-9.296 43.385,-9.326 0.232,-0.043 0.156,-0.242 0.156,-0.242 l -0.602,-2.215 h -0.102 c 0,0 -0.718,0.099 -1.098,-0.599 l -0.642,-3.572 c 0,0 -0.03,-0.185 -0.245,-0.185 h -1.584 -0.331 v -1.045 c 0,-0.06 -0.04,-0.103 -0.092,-0.103 h -0.275 c -0.162,0 -0.156,-0.126 -0.156,-0.287 0,-0.156 -0.065,-1.016 -0.667,-1.515 -0.086,-0.077 -0.067,-0.288 0.126,-0.288 h 0.198 c 0.162,0 0.169,-0.099 0.115,-0.172 -0.049,-0.096 -0.072,-0.404 -0.072,-0.529 v -0.493 c 0,-0.076 -0.014,-0.135 -0.109,-0.135 h -0.086 c 0,0 -0.063,0 -0.063,-0.074 V 40.144 15.912 c 0.105,-0.116 0.317,-0.331 0.36,-0.358 0.026,-0.026 0.033,-0.056 0.033,-0.099 v -0.403 c 0,-0.03 0.01,-0.076 0.027,-0.09 0.023,-0.026 0.059,-0.026 0.096,-0.026 h 0.307 c 0.043,0 0.096,-0.053 0.096,-0.099 v -0.612 -0.089 -2.451 h 3.403 V 5.87 L 0,5.87 Z m -65.901,69.215 c 0,0.192 0.188,0.192 0.188,0.192 h 0.682 c 0.185,0 0.178,0.156 0.178,0.156 v 0.731 c 0,0.188 0.172,0.188 0.172,0.188 h 0.674 c 0.186,0 0.176,0.156 0.176,0.156 v 0.671 c 0,0 0,0.162 0.175,0.162 h 0.394 c 0.149,0 0.288,0.109 0.294,0.301 0.03,0.929 -0.301,7.431 3.149,12.131 2.692,4.051 6.413,6.102 8.483,7.061 0.029,0.87 1.28,1.201 1.822,1.386 0.285,0.099 0.536,0.215 0.536,0.486 0,0 0.007,0.274 0.007,0.288 0,0.271 -0.251,0.39 -0.629,0.374 -0.102,-0.014 -0.198,0.102 -0.198,0.162 v 0.797 c 0,0.116 0.109,0.241 0.271,0.241 h 0.744 c 0.172,0 0.258,0.158 0.258,0.261 v 0.397 c 0,0.235 0.185,0.361 0.324,0.433 v 4.839 c 0,0.172 -0.125,0.142 -0.234,0.142 -0.017,0 -0.037,0 -0.06,0.016 h -0.014 c -0.059,0 -0.112,0.057 -0.112,0.116 v 0.457 c 0,0.072 0.053,0.132 0.112,0.132 h 0.219 c 0.069,0.03 0.129,0.126 0.129,0.344 0,0.225 -0.063,0.328 -0.159,0.358 h -0.189 c -0.059,0 -0.112,0.042 -0.112,0.095 v 0.476 c 0,0.073 0.053,0.116 0.112,0.116 h 0.249 c 0.112,0.017 0.195,0.07 0.291,0.156 0.837,0.645 1.663,1.587 1.663,1.732 0,0.074 0.007,0.09 0.007,0.169 0,0.103 0.102,0.298 0.324,0.298 0.215,0 0.185,0.238 0.073,0.238 -0.083,0 -0.102,0.013 -0.102,0.122 v 0.315 c 0,0.149 0.429,0.72 0.429,0.72 h 0.02 c 0,0 0.433,-0.571 0.433,-0.72 v -0.315 c 0,-0.109 -0.023,-0.122 -0.102,-0.122 -0.116,0 -0.142,-0.238 0.072,-0.238 0.229,0 0.325,-0.195 0.325,-0.298 0,-0.079 0.007,-0.095 0.007,-0.169 0,-0.145 0.833,-1.087 1.66,-1.732 0.102,-0.086 0.181,-0.139 0.294,-0.156 h 0.241 c 0.073,0 0.126,-0.043 0.126,-0.116 v -0.476 c 0,-0.053 -0.053,-0.095 -0.126,-0.095 h -0.185 c -0.092,-0.03 -0.159,-0.133 -0.159,-0.358 0,-0.218 0.057,-0.314 0.132,-0.344 h 0.212 c 0.073,0 0.126,-0.06 0.126,-0.132 v -0.457 c 0,-0.059 -0.053,-0.116 -0.126,-0.116 h -0.006 c -0.023,-0.016 -0.06,-0.016 -0.06,-0.016 -0.109,0 -0.234,0.03 -0.234,-0.142 v -4.839 c 0.139,-0.072 0.323,-0.198 0.323,-0.433 v -0.397 c 0,-0.103 0.086,-0.261 0.255,-0.261 h 0.748 c 0.169,0 0.264,-0.125 0.264,-0.241 V 93.66 c 0,-0.06 -0.086,-0.176 -0.198,-0.162 -0.377,0.016 -0.626,-0.103 -0.626,-0.374 0,-0.014 0.007,-0.302 0.007,-0.302 0,-0.257 0.251,-0.373 0.536,-0.472 0.536,-0.185 1.799,-0.516 1.829,-1.386 2.06,-0.959 5.781,-3.01 8.483,-7.061 3.45,-4.7 3.122,-11.202 3.145,-12.131 0.007,-0.192 0.149,-0.301 0.292,-0.301 h 0.4 c 0.178,0 0.168,-0.162 0.168,-0.162 v -0.671 c 0,0 -0.006,-0.156 0.179,-0.156 h 0.665 c 0,0 0.181,0 0.181,-0.188 v -0.731 c 0,0 0,-0.156 0.176,-0.156 h 0.681 c 0,0 0.195,0 0.195,-0.192 v -0.78 c 0,-0.089 -0.056,-0.103 -0.122,-0.119 -0.202,-0.027 -0.612,-0.212 -0.612,-0.659 0,-0.76 -0.469,-0.827 -0.661,-0.827 v -2.837 c 0,-0.662 0.513,-0.933 0.807,-0.992 0.059,-0.013 0.135,-0.086 0.135,-0.152 v -2.924 l -19.88,4.395 h -0.02 l -19.89,-4.395 v 2.924 c 0,0.066 0.09,0.139 0.149,0.152 0.291,0.059 0.803,0.33 0.803,0.992 v 2.837 c -0.191,0 -0.657,0.067 -0.657,0.827 0,0.447 -0.411,0.632 -0.615,0.659 -0.067,0.016 -0.116,0.03 -0.116,0.119 z M -372.97,229.089 V -139.676 H 77.086 c -3.522,2.503 -6.796,5.139 -9.717,7.934 -26.058,25.211 -26.422,54.468 -27.163,81.911 v 155.632 h 83.371 V -57.636 c 0,-11.099 0.374,-22.592 9.67,-31.482 6.704,-7.048 16.765,-9.641 26.445,-9.641 13.011,0 21.583,4.833 26.422,9.267 9.674,9.264 10.041,20.757 10.041,31.856 v 163.437 h 83.747 V -33.532 c 0,-30.004 0,-68.938 -30.89,-98.21 -2.95,-2.768 -6.215,-5.401 -9.723,-7.934 h 124.857 c -36.751,26.378 -54.022,70.451 -54.022,113.195 0,70.409 47.281,141.936 136.24,141.936 39.817,0 77.795,-14.096 105.334,-42.271 11.166,-11.486 16.378,-20.363 21.954,-30.748 L 504.057,7.964 c -6.714,15.581 -19.361,43.362 -54.352,43.362 -18.233,0 -29.779,-8.536 -35.362,-14.075 -19.728,-18.908 -19.728,-48.539 -19.728,-58.94 0,-38.897 14.52,-75.592 55.467,-75.592 38.715,0 50.258,34.089 53.231,42.985 l 70.72,-34.091 c -6.705,-12.591 -13.028,-24.447 -25.685,-37.052 -5.424,-5.315 -11.294,-10.044 -17.516,-14.237 h 76.462 v 245.85 h 82.993 V -87.054 h 107.715 v -52.622 h 76.256 v 368.765 z"
         style="fill:#231f20;fill-opacity:1;fill-rule:nonzero;stroke:none"
         transform="matrix(1.3333333,0,0,-1.3333333,505.4984,305.45253)"
         clip-path="url(#clipPath13)" />
      <path
         id="path14"
         d="M 93.398467,-63.516753 C 90.855498,-85.630034 73.171905,-97.958159 52.12503,-97.958159 c -29.613282,0 -47.0273441,22.113281 -47.0273441,50.519531 0,27.609375 17.4140621,49.7109374 47.0273441,49.7109374 23.449218,0 39.9375,-15.2695314 42.082031,-39.1289064 H 73.839873 c -1.617187,12.597656 -8.847656,21.445313 -21.714843,21.445313 -18.890625,0 -25.992188,-16.078125 -25.992188,-32.027344 0,-16.746094 7.101563,-32.835938 25.992188,-32.835938 10.453125,0 19.570312,7.242188 20.90625,16.757813 z m 78.796873,33.503906 c 1.33594,-21.316406 -10.05469,-41.144531 -33.64453,-41.144531 -21.03516,0 -35.36719,15.808594 -35.36719,36.585937 0,21.433594 13.53516,36.4453129 35.36719,36.4453129 15.67969,0 27.07031,-6.9726563 32.4375,-23.3203129 H 154.2305 c -1.20703,4.289063 -7.3711,8.988282 -15,8.988282 -10.59375,0 -16.48828,-5.496094 -17.02735,-17.554688 z m -49.99219,-12.070312 c 0.26954,-5.355469 3.76172,-14.730469 15.82032,-14.730469 9.24609,0 13.39453,5.085937 15.14062,14.730469 z m 61.23633,42.08203088 h 19.03125 V -36.317534 c 0,-14.074219 4.42969,-19.828125 14.74219,-19.828125 8.84766,0 12.19922,5.625 12.19922,17.015625 v 39.12890588 h 19.01953 V -42.610503 c 0,-17.15625 -5.08594,-28.546875 -25.32422,-28.546875 -8.03906,0 -16.34765,3.75 -21.16406,11.519531 h -0.41016 v -9.644531 H 183.43948 Z M 287.0303,-90.048003 h -19.03125 v 20.765625 h -11.51953 v 12.726562 h 11.51953 v 40.875 c 0,13.8046879 10.1836,16.48828163 21.84375,16.48828163 3.75,0 7.91016,-0.140625 11.1211,-0.6796875 V -14.743316 c -2.00391,0.398438 -3.89063,0.539063 -5.89453,0.539063 -6.4336,0 -8.03907,-1.605469 -8.03907,-8.039063 v -34.3125 h 13.9336 v -12.726562 h -13.9336 z m 23.03907,90.04687488 h 19.03125 V -31.219878 c 0,-12.199219 4.82812,-22.253906 18.76171,-22.253906 2.28516,0 5.09766,0.269531 6.83204,0.679687 v -17.695312 c -1.20704,-0.398438 -2.8125,-0.667969 -4.14844,-0.667969 -9.2461,0 -18.63281,6.035156 -22.11328,14.742187 h -0.26953 V -69.282378 H 310.06937 Z M 427.86917,-30.012847 c 1.33594,-21.316406 -10.05469,-41.144531 -33.64453,-41.144531 -21.03516,0 -35.36719,15.808594 -35.36719,36.585937 0,21.433594 13.53516,36.4453129 35.36719,36.4453129 15.67969,0 27.07031,-6.9726563 32.4375,-23.3203129 h -16.75781 c -1.20703,4.289063 -7.3711,8.988282 -15,8.988282 -10.59375,0 -16.48828,-5.496094 -17.02735,-17.554688 z m -49.99219,-12.070312 c 0.26953,-5.355469 3.76172,-14.730469 15.82032,-14.730469 9.24609,0 13.39453,5.085937 15.14062,14.730469 z m 102.64746,42.08203088 h 19.03125 V -56.555816 h 13.125 v -12.726562 h -13.125 v -4.148438 c 0,-5.765625 2.14453,-7.910156 7.23047,-7.910156 2.41406,0 4.6875,0.128906 6.97266,0.398438 v -14.203125 c -3.22266,-0.128907 -6.70313,-0.539063 -10.05469,-0.539063 -15.53906,0 -23.17969,8.847656 -23.17969,21.046875 v 5.355469 h -11.39062 v 12.726562 h 11.39062 z M 518.85355,-34.571441 c 0,21.972657 14.0625,36.4453129 35.77734,36.4453129 21.84375,0 35.90625,-14.4726559 35.90625,-36.4453129 0,-22.113281 -14.0625,-36.585937 -35.90625,-36.585937 -21.71484,0 -35.77734,14.472656 -35.77734,36.585937 z m 19.01953,0 c 0,-11.121093 3.89062,-22.242187 16.75781,-22.242187 12.99609,0 16.875,11.121094 16.875,22.242187 0,10.980469 -3.87891,22.113282 -16.875,22.113282 -12.86719,0 -16.75781,-11.132813 -16.75781,-22.113282 z m 64.98632,34.57031288 h 19.03125 V -31.219878 c 0,-12.199219 4.82813,-22.253906 18.76172,-22.253906 2.28516,0 5.09766,0.269531 6.83203,0.679687 v -17.695312 c -1.20703,-0.398438 -2.8125,-0.667969 -4.14843,-0.667969 -9.2461,0 -18.63282,6.035156 -22.11328,14.742187 h -0.26954 V -69.282378 H 602.8594 Z m 81.21094,0 h 21.30469 l 7.5,-21.30468788 h 35.78906 l 7.23047,21.30468788 h 21.84375 L 741.96097,-95.684722 H 720.38675 Z M 730.83987,-72.094878 h 0.26953 l 12.0586,35.109375 h -24.79688 z m 102.64161,72.09374988 h 18.09375 V -95.684722 h -19.03125 v 34.851563 h -0.26954 0.14063 c -4.42969,-6.84375 -12.46875,-10.324219 -20.63672,-10.324219 -20.37891,0 -30.69141,17.285156 -30.69141,35.917969 0,19.160156 10.1836,37.1132809 31.08985,37.1132809 8.84765,0 16.61719,-3.2109375 21.03515,-10.7226563 h 0.26954 z M 833.21194,-34.840972 c 0,11.390625 -3.75,22.382813 -16.34765,22.382813 -11.78906,0 -16.7461,-11.390625 -16.7461,-22.253907 0,-11.390625 4.28907,-22.101562 16.7461,-22.101562 12.32812,0 16.34765,10.710937 16.34765,21.972656 z m 94.47071,-34.441406 h -18.89063 l -14.61328,47.308594 h -0.26953 L 879.30765,-69.282378 H 859.3389 l 23.71875,69.28124988 h 21.17578 z m 51.05859,42.480469 c 0,4.148437 -0.53906,15.949218 -15.41016,15.949218 -6.16406,0 -11.66015,-1.746093 -11.66015,-8.847656 0,-6.972656 5.35547,-8.976562 11.25,-10.183594 5.89453,-1.066406 12.59765,-1.207031 15.82031,-4.019531 z m -24.92578,-21.175782 c 0.66797,-7.5 5.35547,-10.453125 12.59766,-10.453125 6.6914,0 12.32812,1.207032 12.32812,9.386719 0,7.769531 -10.86328,7.371094 -22.52344,9.105469 -11.78906,1.617187 -23.57812,5.367187 -23.57812,21.046875 0,14.2031249 10.45312,20.7656249 23.57812,20.7656249 8.44922,0 17.29688,-2.27343752 23.32032,-8.578125 0.14062,2.2851562 0.66796,4.5585937 1.34765,6.70312498 h 19.28903 C 998.44046,-2.8136281 997.76077,-9.1183156 997.76077,-15.411284 v -36.046875 c 0,-16.617188 -16.61719,-19.699219 -30.41015,-19.699219 -15.55079,0 -31.5,5.355469 -32.56641,23.179687 z m 58.68164,47.97656288 h 19.0313 V -36.317534 c 0,-14.074219 4.4296,-19.828125 14.7421,-19.828125 8.8477,0 12.1993,5.625 12.1993,17.015625 v 39.12890588 h 19.0195 V -42.610503 c 0,-17.15625 -5.0859,-28.546875 -25.3242,-28.546875 -8.0391,0 -16.3477,3.75 -21.1641,11.519531 h -0.4101 v -9.644531 h -18.0938 z M 1157.7598,-44.895659 c -1.207,-17.683594 -16.2188,-26.261719 -32.5664,-26.261719 -22.5117,0 -35.3672,15.949219 -35.3672,37.523437 0,20.765625 14.0625,35.5078129 34.9688,35.5078129 18.2226,0 30.9609,-10.0546875 33.3632,-28.4062499 h -18.3515 c -1.2071,8.4375 -6.3047,14.074219 -15.1407,14.074219 -11.9296,0 -15.8203,-11.929688 -15.8203,-21.84375 0,-10.183594 4.0196,-22.511719 16.2188,-22.511719 7.9101,0 12.8672,4.148437 14.0742,11.917969 z m 76.7871,14.882812 c 1.3359,-21.316406 -10.0547,-41.144531 -33.6445,-41.144531 -21.0352,0 -35.3672,15.808594 -35.3672,36.585937 0,21.433594 13.5351,36.4453129 35.3672,36.4453129 15.6797,0 27.0703,-6.9726563 32.4375,-23.3203129 h -16.7578 c -1.2071,4.289063 -7.3711,8.988282 -15,8.988282 -10.5938,0 -16.4883,-5.496094 -17.0274,-17.554688 z m -49.9922,-12.070312 c 0.2695,-5.355469 3.7617,-14.730469 15.8203,-14.730469 9.2461,0 13.3946,5.085937 15.1407,14.730469 z m 110.6895,42.08203088 h 18.0937 V -95.684722 h -19.0312 v 34.851563 h -0.2696 0.1407 c -4.4297,-6.84375 -12.4688,-10.324219 -20.6368,-10.324219 -20.3789,0 -30.6914,17.285156 -30.6914,35.917969 0,19.160156 10.1836,37.1132809 31.0899,37.1132809 8.8476,0 16.6172,-3.2109375 21.0351,-10.7226563 h 0.2696 z m -0.2696,-34.83984388 c 0,11.390625 -3.75,22.382813 -16.3476,22.382813 -11.7891,0 -16.7461,-11.390625 -16.7461,-22.253907 0,-11.390625 4.2891,-22.101562 16.7461,-22.101562 12.3281,0 16.3476,10.710937 16.3476,21.972656 z M 9.2461234,159.99497 H 30.28128 v -37.38282 h 21.046875 c 10.582031,0 14.472656,4.41797 15.9375,14.47266 1.078125,7.62891 0.808593,16.875 3.351562,22.91016 h 21.046875 c -3.761719,-5.35547 -3.621094,-16.61719 -4.03125,-22.65235 -0.667969,-9.64453 -3.609375,-19.6875 -13.933594,-22.37109 V 114.702 c 10.59375,-4.28907 15.140625,-12.72657 15.140625,-23.988284 0,-14.472657 -10.851562,-26.402344 -28.007812,-26.402344 H 9.2461234 Z M 30.28128,80.659028 h 23.050781 c 9.386719,0 14.472656,4.03125 14.472656,13.277344 0,9.644528 -5.085937,13.664058 -14.472656,13.664058 H 30.28128 Z m 139.36816,49.324222 c 1.33594,-21.31641 -10.05468,-41.144534 -33.64453,-41.144534 -21.03515,0 -35.36718,15.808594 -35.36718,36.585934 0,21.4336 13.53515,36.44532 35.36718,36.44532 15.67969,0 27.07031,-6.97266 32.4375,-23.32032 H 151.6846 c -1.20703,4.28907 -7.37109,8.98828 -15,8.98828 -10.59375,0 -16.48828,-5.49609 -17.02734,-17.55468 z m -49.99218,-12.07032 c 0.26953,-5.35546 3.76172,-14.73046 15.82031,-14.73046 9.24609,0 13.39453,5.08593 15.14062,14.73046 z m 57.89648,19.57032 c 0.79688,18.36328 16.47656,24.38672 32.55469,24.38672 15.82031,0 31.6289,-5.89454 31.6289,-24.11719 0,-12.86719 -10.85156,-16.88672 -21.97265,-19.42969 -10.86328,-2.55469 -21.57422,-3.49219 -21.57422,-10.32422 0,-5.625 6.29297,-6.43359 10.58203,-6.43359 6.83203,0 12.45703,2.01562 12.99609,9.38672 h 18.09375 c -1.47656,-17.015628 -15.41015,-22.113284 -30.55078,-22.113284 -14.88281,0 -30.15234,4.558593 -30.15234,22.242184 0,12.19922 10.99219,16.07813 21.97266,18.49219 13.67578,2.95313 21.57421,4.95703 21.57421,10.72266 0,6.70312 -6.96093,8.84765 -12.45703,8.84765 -7.51172,0 -14.47265,-3.35156 -14.61328,-11.66015 z m 140.9707,-7.5 c 1.33594,-21.31641 -10.05468,-41.144534 -33.64453,-41.144534 -21.03515,0 -35.36719,15.808594 -35.36719,36.585934 0,21.4336 13.53516,36.44532 35.36719,36.44532 15.67969,0 27.07031,-6.97266 32.4375,-23.32032 H 300.5596 c -1.20703,4.28907 -7.37109,8.98828 -15,8.98828 -10.59375,0 -16.48828,-5.49609 -17.02734,-17.55468 z m -49.99218,-12.07032 c 0.26953,-5.35546 3.76171,-14.73046 15.82031,-14.73046 9.24609,0 13.39453,5.08593 15.14062,14.73046 z m 104.39648,15.28125 c 0,4.14844 -0.53906,15.94922 -15.41016,15.94922 -6.16406,0 -11.66015,-1.74609 -11.66015,-8.84765 0,-6.97266 5.35547,-8.97657 11.25,-10.1836 5.89453,-1.0664 12.59765,-1.20703 15.82031,-4.01953 z M 348.00296,112.0184 c 0.66797,-7.5 5.35547,-10.45312 12.59766,-10.45312 6.6914,0 12.32812,1.20703 12.32812,9.38672 0,7.76953 -10.86328,7.37109 -22.52344,9.10547 -11.78906,1.61718 -23.57812,5.36718 -23.57812,21.04687 0,14.20313 10.45312,20.76563 23.57812,20.76563 8.44922,0 17.29688,-2.27344 23.32032,-8.57813 0.14062,2.28516 0.66796,4.55859 1.34765,6.70313 h 19.28906 c -1.73437,-2.8125 -2.41406,-9.11719 -2.41406,-15.41016 v -36.04688 c 0,-16.617183 -16.61719,-19.699214 -30.41015,-19.699214 -15.55079,0 -31.5,5.355468 -32.56641,23.179684 z m 58.68164,47.97657 h 19.03125 v -31.21875 c 0,-12.19922 4.82812,-22.25391 18.76172,-22.25391 2.28515,0 5.09765,0.26953 6.83203,0.67969 V 89.506684 c -1.20703,-0.398437 -2.8125,-0.667968 -4.14844,-0.667968 -9.24609,0 -18.63281,6.035156 -22.11328,14.742184 h -0.26953 V 90.713716 H 406.6846 Z m 117.92578,-44.89454 c -1.20703,-17.683589 -16.21875,-26.261714 -32.56641,-26.261714 -22.51171,0 -35.36718,15.949214 -35.36718,37.523434 0,20.76563 14.0625,35.50782 34.96875,35.50782 18.22265,0 30.96094,-10.05469 33.36328,-28.40625 h -18.35156 c -1.20704,8.4375 -6.30469,14.07421 -15.14063,14.07421 -11.92969,0 -15.82031,-11.92968 -15.82031,-21.84375 0,-10.18359 4.01953,-22.51171 16.21875,-22.51171 7.91015,0 12.86719,4.14843 14.07422,11.91796 z m 11.11524,44.89454 h 19.03125 v -36.31641 c 0,-14.07422 4.42968,-19.82813 14.74218,-19.82813 8.84766,0 12.19922,5.625 12.19922,17.01563 v 39.12891 h 19.01953 v -42.60938 c 0,-17.15625 -5.08593,-28.546874 -25.32422,-28.546874 -7.10156,0 -15.41015,3.75 -20.22656,11.519534 h -0.41015 V 64.311372 H 535.72562 Z M 738.6094,96.479341 c -2.54296,-22.113282 -20.22656,-34.441407 -41.27343,-34.441407 -29.61328,0 -47.02735,22.113282 -47.02735,50.519536 0,27.60937 17.41407,49.71093 47.02735,49.71093 23.44922,0 39.9375,-15.26953 42.08203,-39.1289 h -20.36719 c -1.61719,12.59765 -8.84766,21.44531 -21.71484,21.44531 -18.89063,0 -25.99219,-16.07813 -25.99219,-32.02734 0,-16.746098 7.10156,-32.835942 25.99219,-32.835942 10.45312,0 19.57031,7.242188 20.90625,16.757813 z m 10.99219,28.945309 c 0,21.97266 14.0625,36.44532 35.77735,36.44532 21.84375,0 35.90625,-14.47266 35.90625,-36.44532 0,-22.11328 -14.0625,-36.585934 -35.90625,-36.585934 -21.71485,0 -35.77735,14.472654 -35.77735,36.585934 z m 19.01953,0 c 0,-11.12109 3.89063,-22.24218 16.75782,-22.24218 12.99609,0 16.875,11.12109 16.875,22.24218 0,10.98047 -3.87891,22.11328 -16.875,22.11328 -12.86719,0 -16.75782,-11.13281 -16.75782,-22.11328 z m 65.52539,34.57032 h 19.03125 v -40.19532 c 0,-13.53515 9.11719,-15.94922 12.86719,-15.94922 12.0586,0 11.51953,9.2461 11.51953,17.28516 v 38.85938 h 19.03125 v -38.58985 c 0,-8.71875 2.00391,-17.55469 12.72657,-17.55469 10.85156,0 11.66015,7.64063 11.66015,16.88672 v 39.25782 h 19.03125 v -46.3711 c 0,-17.953123 -10.58203,-24.785154 -25.32422,-24.785154 -9.65625,0 -16.88672,5.496093 -20.90625,11.519534 -3.75,-8.308597 -11.53125,-11.519534 -20.23828,-11.519534 -8.97656,0 -16.21875,4.160156 -21.17578,11.261714 h -0.25781 v -9.386714 h -17.96485 z m 120.86719,24.38671 h 19.03125 v -32.96484 h 0.26953 c 4.5586,6.83203 12.46875,10.45313 20.77735,10.45313 20.22657,0 30.41017,-17.28516 30.41017,-35.77735 0,-19.69922 -9.7735,-37.253904 -31.4883,-37.253904 -8.57812,0 -16.07812,3.351562 -20.63672,10.722656 h -0.26953 V 90.713716 H 955.0137 Z m 34.98047,-36.84375 c -12.32812,0 -16.61719,-10.72265 -16.61719,-21.98437 0,-11.25 4.01953,-22.37109 16.48828,-22.37109 12.18754,0 16.61724,11.39062 16.61724,22.37109 0,11.26172 -4.0313,21.98437 -16.48833,21.98437 z M 1101.8789,90.713716 h -19.0195 v 36.316404 c 0,14.07422 -4.4297,19.82813 -14.7422,19.82813 -8.8476,0 -12.1992,-5.625 -12.1992,-17.01563 V 90.713716 h -19.0313 v 42.609374 c 0,17.15625 5.0977,28.54688 25.336,28.54688 8.039,0 16.3476,-3.75 21.164,-11.51954 h 0.4102 v 9.64454 h 18.082 z m 38.5987,-20.765625 h -19.0313 v 20.765625 h -11.5195 v 12.726564 h 11.5195 v 40.875 c 0,13.80469 10.1836,16.48828 21.8438,16.48828 3.75,0 7.9101,-0.14063 11.1211,-0.67969 v -14.87109 c -2.0039,0.39844 -3.8907,0.53906 -5.8946,0.53906 -6.4336,0 -8.039,-1.60547 -8.039,-8.03906 v -34.3125 h 13.9336 V 90.713716 h -13.9336 z m 23.5781,90.046879 h 19.0312 V 90.713716 h -19.0312 z m 19.0312,-95.683598 h -19.0312 v 15.679687 h 19.0312 z m 15.003,95.683598 h 19.0312 v -36.31641 c 0,-14.07422 4.4297,-19.82813 14.7422,-19.82813 8.8477,0 12.1992,5.625 12.1992,17.01563 v 39.12891 h 19.0196 v -42.60938 c 0,-17.15625 -5.086,-28.546874 -25.3243,-28.546874 -8.039,0 -16.3476,3.75 -21.164,11.519534 h -0.4102 v -9.644534 h -18.0937 z m 146.0713,-69.281254 h -18.0938 v 9.246093 h -0.2695 c -4.5586,-8.039062 -11.5195,-11.121093 -20.6367,-11.121093 -19.4297,0 -29.7422,16.347654 -29.7422,34.300784 0,19.03125 8.8359,34.83984 29.6133,34.83984 8.3086,0 16.6171,-3.48047 20.7656,-10.71094 h 0.2695 v 9.10547 c 0.1289,9.91406 -4.6875,17.15625 -15.2812,17.15625 -6.6914,0 -12.4571,-2.41406 -14.2032,-9.51562 h -18.8906 c 0.9375,15.80859 16.8867,22.24218 30.5508,22.24218 31.8984,0 35.918,-19.28906 35.918,-30.67968 z m -34.3125,52.933594 c -11.6602,0 -15.4102,-10.85156 -15.4102,-20.76563 0,-10.32421 4.6992,-19.69921 15.4102,-19.69921 12.3281,0 16.2187,10.04296 16.2187,21.30468 0,9.91407 -5.3555,19.16016 -16.2187,19.16016 z m 0,0"
         style="fill:#231f20;fill-opacity:1;fill-rule:nonzero;stroke:none"
         aria-label="Centre for Advanced &#10;Research Computing"
         transform="matrix(1.3333333,0,0,1.3333333,-5.9961333,753.85307)"
         clip-path="url(#clipPath15)" />
    </g>
  </g>
</svg>
